<svg width="29" height="31" viewBox="0 0 29 31" fill="none" xmlns="http://www.w3.org/2000/svg">
<g filter="url(#filter0_d_2395_1028)">
<path fill-rule="evenodd" clip-rule="evenodd" d="M20.406 3.02498H23.251C24.217 3.02498 25 3.84698 25 4.86198V21.164C25 22.179 24.217 23 23.251 23H5.75C4.784 23 4 22.179 4 21.164V4.86198C4 3.84698 4.784 3.02498 5.75 3.02498H8.593V1.64798C8.593 1.26698 8.887 0.958984 9.25 0.958984C9.612 0.958984 9.906 1.26698 9.906 1.64798V3.02498H13.844V1.64798C13.844 1.26698 14.138 0.958984 14.501 0.958984C14.862 0.958984 15.156 1.26698 15.156 1.64798V3.02498H19.094V1.64798C19.094 1.26698 19.387 0.958984 19.75 0.958984C20.112 0.958984 20.406 1.26698 20.406 1.64798V3.02498ZM23.5646 21.484C23.6466 21.3979 23.691 21.2828 23.688 21.164H23.689V4.86198C23.689 4.60898 23.493 4.40298 23.252 4.40298H20.407V5.78098C20.407 6.16198 20.113 6.46998 19.751 6.46998C19.388 6.46998 19.095 6.16198 19.095 5.78098V4.40298H15.157V5.78098C15.157 6.16198 14.863 6.46998 14.502 6.46998C14.139 6.46998 13.845 6.16198 13.845 5.78098V4.40298H9.907V5.78098C9.907 6.16198 9.613 6.46998 9.251 6.46998C8.888 6.46998 8.594 6.16198 8.594 5.78098V4.40298H5.75C5.50263 4.40953 5.30696 4.61458 5.312 4.86198V21.164C5.30696 21.4114 5.50263 21.6164 5.75 21.623H23.251C23.3698 21.6201 23.4826 21.5701 23.5646 21.484Z" fill="#A9A9A9"/>
<path fill-rule="evenodd" clip-rule="evenodd" d="M8.59399 9.22498H11.219V11.291H8.59399V9.22498ZM8.59399 12.668H11.219V14.735H8.59399V12.668ZM11.219 16.112H8.59399V18.178H11.219V16.112ZM13.188 16.112H15.813V18.178H13.188V16.112ZM15.813 12.668H13.188V14.735H15.813V12.668ZM13.188 9.22498H15.813V11.291H13.188V9.22498ZM20.406 16.112H17.781V18.178H20.406V16.112ZM17.781 12.668H20.406V14.735H17.781V12.668ZM20.406 9.22498H17.781V11.291H20.406V9.22498Z" fill="#A9A9A9"/>
</g>
<defs>
<filter id="filter0_d_2395_1028" x="0" y="0" width="29" height="31" filterUnits="userSpaceOnUse" color-interpolation-filters="sRGB">
<feFlood flood-opacity="0" result="BackgroundImageFix"/>
<feColorMatrix in="SourceAlpha" type="matrix" values="0 0 0 0 0 0 0 0 0 0 0 0 0 0 0 0 0 0 127 0" result="hardAlpha"/>
<feOffset dy="4"/>
<feGaussianBlur stdDeviation="2"/>
<feComposite in2="hardAlpha" operator="out"/>
<feColorMatrix type="matrix" values="0 0 0 0 0 0 0 0 0 0 0 0 0 0 0 0 0 0 0.25 0"/>
<feBlend mode="normal" in2="BackgroundImageFix" result="effect1_dropShadow_2395_1028"/>
<feBlend mode="normal" in="SourceGraphic" in2="effect1_dropShadow_2395_1028" result="shape"/>
</filter>
</defs>
</svg>
